# xmcd
#
# Track frame offsets: 
#        150
#        17162
#        35744
#        49751
#        65332
#        84438
#        102668
#        119571
#        133929
#
# Disc length: 2035 seconds
#
# Revision: 0
# Processed by: cddbd v1.5.2PL0 Copyright (c) Steve Scherf et al.
# Submitted via: ExactAudioCopy v0.99pb4
#
DISCID=8107f109
DTITLE=K.T. Oslin - 80's Ladies
DYEAR=1990
DGENRE=Country
TTITLE0=Wall Of Tears
TTITLE1=I'll Always Come Back
TTITLE2=Younger Men
TTITLE3=80's Ladies
TTITLE4=Do Ya'
TTITLE5=Two Hearts
TTITLE6=Dr., Dr.
TTITLE7=Lonely But Only For You
TTITLE8=Old Pictures
EXTD=
EXTT0=
EXTT1=
EXTT2=
EXTT3=
EXTT4=
EXTT5=
EXTT6=
EXTT7=
EXTT8=
PLAYORDER=
